<?xml version="1.0" encoding="utf-8"?>
<!-- Generator: Adobe Illustrator 22.1.0, SVG Export Plug-In . SVG Version: 6.00 Build 0)  -->
<!DOCTYPE svg PUBLIC "-//W3C//DTD SVG 1.1//EN" "http://www.w3.org/Graphics/SVG/1.1/DTD/svg11.dtd">
<svg version="1.1" id="图层_1" xmlns="http://www.w3.org/2000/svg" xmlns:xlink="http://www.w3.org/1999/xlink" x="0px" y="0px"
	 viewBox="0 0 50 50" style="enable-background:new 0 0 50 50;" xml:space="preserve">
<style type="text/css">
	.st0{filter:url(#Adobe_OpacityMaskFilter);}
	.st1{fill:#FFFFFF;}
	.st2{mask:url(#mask-2_1_);fill:#FFFFFF;}
</style>
<defs>
	<filter id="Adobe_OpacityMaskFilter" filterUnits="userSpaceOnUse" x="3" y="0.2" width="44.3" height="49.8">
		<feColorMatrix  type="matrix" values="1 0 0 0 0  0 1 0 0 0  0 0 1 0 0  0 0 0 1 0"/>
	</filter>
</defs>
<mask maskUnits="userSpaceOnUse" x="3" y="0.2" width="44.3" height="49.8" id="mask-2_1_">
	<g class="st0">
		<polygon id="path-1_1_" class="st1" points="3,0.2 47.3,0.2 47.3,50 3,50 		"/>
	</g>
</mask>
<path id="Fill-1" class="st2" d="M47.1,21.8c-0.3-1.9-0.7-3.8-1.3-5.4c-0.4-1.2-1.1-2.6-1.9-4.1c-0.3-0.5-0.6-1-1-1.6
	c-0.2-0.4-0.5-0.7-0.8-1c-0.4-0.5-0.9-1.1-1.3-1.6c-0.6-0.7-1.2-1.3-1.9-1.9c-0.6-0.5-1.2-1-1.9-1.5c-0.9-0.6-1.8-1.2-2.8-1.7
	c-0.4-0.2-0.8-0.4-1.3-0.6c-0.4-0.2-0.7-0.3-1.1-0.5c-0.3-0.1-0.7-0.3-1-0.4c-0.4-0.1-0.7-0.2-1.1-0.3c-0.7-0.2-1.4-0.4-2.1-0.5
	c-1.7-0.4-3.3-0.5-4.4-0.5c-2,0-15.1,0-15.7,0c-0.3,0-0.8,0-1.4,0.2C5.8,0.5,5.5,0.7,5.1,1C4.8,1.2,4.4,1.5,4.2,1.8
	C3.9,2,3.7,2.4,3.5,2.7C3.1,3.6,3,4.3,3,4.9c0,1.2,0,30.8,0,31.8c0,0.4,0,0.9,0.2,1.5c0.1,0.5,0.3,1,0.6,1.5
	c0.2,0.4,0.5,0.8,0.8,1.1c0.3,0.3,0.6,0.6,1,0.9C5.8,41.8,6,42,6.2,42.1c0.5,0.3,1,0.5,1.5,0.6c0.2,0.1,0.5,0.1,0.7,0.2
	c0.2,0,0.3,0.1,0.5,0.1c0.5,0.1,0.9,0.2,1.4,0.2c0.5,0,1.1,0,1.7,0c0.5,0,1.1-0.1,1.7-0.3c0.5-0.1,1.1-0.3,1.6-0.5
	c0.7-0.3,1.3-0.6,1.9-1.1c0.6-0.4,1.2-0.9,1.8-1.5c0.4-0.4,0.7-0.8,1-1.2c0.4-0.6,0.8-1.2,1.1-2c0.3-0.8,0.6-1.6,0.7-2.5
	c0-0.2,0.1-0.5,0.1-0.7c0-0.3,0.1-0.6,0.1-0.9c0-1-0.1-1.9-0.2-2.6c-0.1-0.4-0.2-0.8-0.3-1c-0.1-0.1-0.2-0.4-0.3-0.7
	c-0.1-0.2-0.3-0.5-0.5-0.8c-0.1-0.2-0.2-0.3-0.4-0.5c-0.1-0.2-0.3-0.3-0.4-0.5c-0.2-0.2-0.5-0.4-0.7-0.6c-0.2-0.1-0.4-0.3-0.6-0.4
	c-0.1-0.1-0.3-0.1-0.5-0.2c-0.1-0.1-0.3-0.1-0.4-0.1c-0.1,0-0.3-0.1-0.4-0.1c-0.1,0-0.3-0.1-0.4-0.1C16.6,25,16.3,25,16,25
	c-0.3,0-0.6,0-1,0c-0.3,0-0.6,0.1-0.9,0.2c-0.2,0.1-0.4,0.1-0.6,0.2c-0.2,0.1-0.4,0.2-0.6,0.3c-0.1,0.1-0.2,0.1-0.4,0.2
	c-0.2,0.2-0.7,0.5-0.9,0.7c-0.4,0.4-0.8,0.7-1.1,1.1c-0.1,0.1-0.7,0.5-0.8,0.6c-0.2,0.1-0.7,0.4-0.9,0.6c-0.4,0.2-1.1,0.7-1.7,0.8
	c-0.4,0.1-0.9-0.1-1.1-0.4c-0.1-0.1-0.4-0.4-0.4-0.8c0-0.4,0.1-0.7,0.2-0.9c0.1-0.2,0.4-0.8,0.7-1.1c0.3-0.3,0.7-0.9,0.8-1.3
	c0.1-0.2,0.1-0.5,0.1-0.7c0-0.2,0-0.5-0.1-0.9c-0.1-0.4-0.1-0.8-0.1-1.3c0-0.3,0-0.6,0-0.9c0-0.6,0.1-1.1,0.2-1.7
	c0.1-0.5,0.2-1,0.4-1.5c0.1-0.3,0.2-0.6,0.3-0.9c0.1-0.3,0.3-0.6,0.4-1c0.2-0.4,0.5-0.9,0.8-1.4c0.3-0.5,0.7-0.9,1.1-1.4
	c0.6-0.6,1.2-1.2,2-1.8c0.9-0.7,1.9-1.2,2.9-1.7c0.5-0.2,1.1-0.4,1.7-0.6c0.4-0.1,0.9-0.2,1.4-0.3C18.5,9,18.8,9,19.2,9
	c0.3,0,0.6-0.1,0.9-0.1c0.3,0,0.6,0,0.8,0c0.3,0,0.6,0,0.9,0c0.2,0,0.4,0,0.7,0c0.1,0,0.3,0,0.4,0c0.2,0,0.4,0,0.5,0.1
	c0.2,0,0.4,0.1,0.6,0.1c0.2,0,0.4,0.1,0.6,0.1c1.1,0.2,2,0.6,2.9,1c0.4,0.2,0.8,0.4,1.2,0.6c0.3,0.2,0.6,0.4,0.9,0.5
	c0.2,0.2,0.5,0.3,0.7,0.5c0.6,0.5,1.1,0.9,1.4,1.1c0.4,0.4,0.8,0.8,1.1,1.1c0.3,0.3,0.6,0.4,0.8,0.5c0.2,0.1,0.6,0.1,1,0
	c0.3-0.1,0.7-0.2,1.1-0.2c0.8-0.1,1.7-0.1,2.7,0.2c0.8,0.2,1.5,0.5,2.1,0.8c0.3,0.2,0.7,0.4,0.9,0.6c0.3,0.2,0.5,0.4,0.7,0.7
	c0.3,0.3,0.5,0.5,0.7,0.8c0.1,0.2,0.2,0.3,0.3,0.5c0.1,0.2,0.2,0.3,0.3,0.4c0.1,0.2,0.2,0.4,0.3,0.6c0.2,0.3,0.3,0.6,0.4,0.9
	c0.1,0.2,0.1,0.4,0.2,0.6c0.1,0.6-0.2,0.9-0.3,1c-0.2,0.2-0.6,0.3-0.9,0.2c-0.1,0-0.3-0.1-0.4-0.1c-0.3-0.1-0.6-0.1-0.9-0.1
	c-0.3,0-0.7,0-1,0.1c-0.1,0-0.3,0.1-0.5,0.1c-0.2,0-0.4,0.1-0.5,0.2c-0.3,0.1-0.6,0.3-0.9,0.5c-0.2,0.2-0.5,0.4-0.8,0.6
	c-0.3,0.3-0.5,0.6-0.8,0.9c-0.2,0.3-0.3,0.6-0.5,0.9c-0.1,0.3-0.2,0.7-0.3,1.1c-0.1,0.4-0.1,0.8-0.1,1.2c-0.1,0.5-0.2,1-0.3,1.6
	c-0.1,0.5-0.2,1-0.4,1.5c-0.1,0.3-0.2,0.6-0.3,1c-0.3,0.7-0.6,1.3-0.9,2c-0.2,0.4-0.4,0.7-0.6,1.1c-0.3,0.4-0.6,0.9-0.9,1.3
	c-0.6,0.7-1.1,1.4-1.7,2c-0.4,0.4-0.8,0.8-1.3,1.1c-0.4,0.3-0.7,0.5-1,0.7c-0.8,0.6-1.8,1.2-2.7,1.6c-0.4,0.2-0.8,0.4-1.2,0.5
	c-0.3,0.1-0.5,0.2-0.7,0.3c-0.4,0.1-0.6,0.2-0.8,0.3c-0.2,0.1-0.6,0.2-1.1,0.5c-0.4,0.3-0.9,0.8-1.3,1.4c-0.3,0.5-0.6,1.2-0.6,2.1
	c0,0.5,0.1,1,0.3,1.5c0.2,0.4,0.4,0.8,0.6,1.1c0.2,0.3,0.5,0.6,0.8,0.8c0.4,0.3,0.8,0.5,1.3,0.6c0.4,0.1,0.8,0.2,1.2,0.2
	c0.5,0,1.2-0.1,1.8-0.2c0.5-0.1,1-0.2,1.5-0.3c0.7-0.1,1.4-0.3,2-0.5c0.5-0.2,1-0.3,1.2-0.4c0.3-0.1,0.7-0.3,1.3-0.5
	c0.5-0.2,1.1-0.5,1.5-0.7c0.7-0.4,1.5-0.8,2.2-1.3c0.4-0.3,0.9-0.6,1.3-0.9c0.3-0.3,0.6-0.5,0.9-0.7c0.4-0.3,0.7-0.6,1-0.9
	c0.5-0.5,1-1,1.6-1.6c0.3-0.3,0.6-0.7,1-1.2c0.2-0.2,0.3-0.4,0.5-0.6c0.2-0.3,0.4-0.6,0.6-0.9c0.3-0.4,0.5-0.7,0.7-1.1
	c0.2-0.4,0.4-0.7,0.6-1.1c0.2-0.3,0.3-0.6,0.5-1c0.3-0.7,0.6-1.4,0.9-2.1c0.2-0.5,0.4-1.1,0.6-1.8c0.2-0.8,0.5-1.7,0.6-2.7
	c0.1-0.6,0.2-1.2,0.3-1.8c0.1-0.9,0.1-1.8,0.1-2.7C47.3,24.1,47.2,22.9,47.1,21.8"/>
<path id="Fill-4" class="st1" d="M12.1,20c0,1,0.8,1.8,1.8,1.8c1,0,1.8-0.8,1.8-1.8s-0.8-1.8-1.8-1.8C12.9,18.2,12.1,19,12.1,20"/>
</svg>
